<svg width="949" height="247" viewBox="0 0 949 247" fill="none" xmlns="http://www.w3.org/2000/svg">
<rect width="246.166" height="246.166" rx="123.083" fill="#F15532"/>
<path d="M118.614 87.469V136.172L128.575 136.172L128.575 87.469L140.324 99.2112L147.368 92.1711L123.594 68.4107L99.8206 92.1711L106.865 99.2112L118.614 87.469Z" fill="white"/>
<path d="M216.349 120.191V178.329H30.8398V120.191H40.1901V168.984H206.999V120.191H216.349Z" fill="white"/>
<path d="M335.576 203.289C320.189 203.289 306.903 199.941 295.718 193.244C284.605 186.548 276.021 177.18 269.966 165.141C263.982 153.101 260.99 139.103 260.99 123.145C260.99 107.188 263.982 93.1896 269.966 81.1503C276.021 69.1109 284.605 59.7431 295.718 53.0466C306.903 46.3502 320.189 43.002 335.576 43.002C350.964 43.002 364.214 46.3502 375.328 53.0466C386.512 59.7431 395.096 69.1109 401.08 81.1503C407.136 93.1896 410.163 107.188 410.163 123.145C410.163 139.103 407.136 153.101 401.08 165.141C395.096 177.18 386.512 186.548 375.328 193.244C364.214 199.941 350.964 203.289 335.576 203.289ZM335.576 175.933C345.336 176.076 353.457 173.974 359.94 169.629C366.423 165.283 371.267 159.121 374.473 151.142C377.75 143.164 379.388 133.831 379.388 123.145C379.388 112.46 377.75 103.199 374.473 95.3624C371.267 87.5261 366.423 81.4352 359.94 77.0897C353.457 72.7441 345.336 70.5001 335.576 70.3576C325.817 70.2151 317.696 72.3167 311.213 76.6622C304.73 81.0078 299.85 87.1699 296.573 95.1487C293.368 103.127 291.765 112.46 291.765 123.145C291.765 133.831 293.368 143.092 296.573 150.929C299.85 158.765 304.73 164.856 311.213 169.201C317.696 173.547 325.817 175.791 335.576 175.933ZM457.355 203.503C448.307 203.503 440.934 201.971 435.235 198.908C429.536 195.845 425.083 191.962 421.878 187.26C418.743 182.559 416.499 177.679 415.146 172.621C413.792 167.492 412.973 162.825 412.688 158.622C412.403 154.419 412.26 151.356 412.26 149.433V84.6766H441.753V139.174C441.753 141.81 441.896 145.194 442.181 149.326C442.466 153.386 443.356 157.482 444.852 161.614C446.348 165.746 448.77 169.201 452.118 171.98C455.538 174.758 460.347 176.147 466.544 176.147C469.038 176.147 471.709 175.755 474.559 174.972C477.408 174.188 480.08 172.692 482.573 170.484C485.066 168.204 487.097 164.891 488.664 160.546C490.302 156.129 491.122 150.359 491.122 143.235L507.791 151.142C507.791 160.261 505.939 168.809 502.235 176.788C498.53 184.767 492.938 191.214 485.458 196.129C478.049 201.045 468.681 203.503 457.355 203.503ZM494.755 200.083V161.828H491.122V84.6766H520.401V200.083H494.755ZM602.413 200.083C594.434 201.579 586.598 202.22 578.904 202.007C571.281 201.864 564.442 200.546 558.387 198.053C552.403 195.488 547.844 191.392 544.709 185.764C541.86 180.493 540.364 175.15 540.221 169.736C540.079 164.25 540.007 158.052 540.007 151.142V52.6192H569.073V149.433C569.073 153.921 569.108 157.981 569.18 161.614C569.322 165.176 570.07 168.026 571.424 170.163C573.988 174.224 578.085 176.432 583.712 176.788C589.34 177.144 595.574 176.859 602.413 175.933V200.083ZM520.346 107.117V84.6766H602.413V107.117H520.346ZM611.033 200.083V46.2077H672.583C683.554 46.2077 692.423 48.4161 699.191 52.8329C705.959 57.1785 710.91 62.6638 714.044 69.289C717.179 75.9142 718.746 82.6107 718.746 89.3783C718.746 97.9982 716.787 105.158 712.869 110.857C709.022 116.556 703.714 120.367 696.947 122.291V116.948C706.564 118.942 713.759 123.395 718.532 130.305C723.376 137.215 725.798 144.944 725.798 153.493C725.798 162.683 724.089 170.769 720.669 177.75C717.321 184.731 712.192 190.217 705.282 194.206C698.372 198.124 689.68 200.083 679.208 200.083H611.033ZM640.526 172.728H676.216C680.134 172.728 683.625 171.908 686.688 170.27C689.752 168.56 692.138 166.209 693.848 163.217C695.629 160.154 696.519 156.556 696.519 152.425C696.519 148.791 695.771 145.55 694.275 142.7C692.779 139.851 690.5 137.607 687.436 135.968C684.444 134.259 680.704 133.404 676.216 133.404H640.526V172.728ZM640.526 106.262H672.156C675.433 106.262 678.354 105.692 680.918 104.552C683.483 103.412 685.513 101.667 687.009 99.3161C688.505 96.894 689.253 93.7951 689.253 90.0195C689.253 85.3177 687.793 81.364 684.872 78.1582C681.951 74.9525 677.712 73.3496 672.156 73.3496H640.526V106.262ZM781.946 203.289C770.334 203.289 760.147 200.689 751.384 195.488C742.622 190.288 735.783 183.128 730.868 174.01C726.023 164.82 723.601 154.277 723.601 142.38C723.601 130.341 726.095 119.762 731.081 110.643C736.068 101.453 742.942 94.2938 751.705 89.1646C760.467 84.0354 770.547 81.4708 781.946 81.4708C793.558 81.4708 803.745 84.0711 812.507 89.2715C821.341 94.4719 828.215 101.667 833.131 110.857C838.046 119.975 840.504 130.483 840.504 142.38C840.504 154.348 838.01 164.927 833.024 174.117C828.108 183.235 821.234 190.395 812.4 195.595C803.638 200.724 793.486 203.289 781.946 203.289ZM781.946 176.147C791.278 176.147 798.224 173.013 802.783 166.744C807.413 160.403 809.729 152.282 809.729 142.38C809.729 132.122 807.378 123.929 802.676 117.803C798.046 111.676 791.135 108.613 781.946 108.613C775.605 108.613 770.405 110.038 766.344 112.887C762.284 115.737 759.256 119.69 757.261 124.748C755.338 129.806 754.376 135.683 754.376 142.38C754.376 152.71 756.692 160.938 761.322 167.064C766.024 173.119 772.898 176.147 781.946 176.147ZM829.908 200.083L871.155 141.739L830.763 84.6766H864.958L888.039 118.871L910.693 84.6766H944.887L904.495 141.739L945.956 200.083H911.761L888.039 164.606L864.103 200.083H829.908Z" fill="white"/>
</svg>
